<?xml version="1.0" encoding="utf-8"?>
<!-- Generator: Adobe Illustrator 22.0.1, SVG Export Plug-In . SVG Version: 6.00 Build 0)  -->
<svg version="1.1" id="Layer_1" xmlns="http://www.w3.org/2000/svg" xmlns:xlink="http://www.w3.org/1999/xlink" x="0px" y="0px"
	 viewBox="0 0 768 120" style="enable-background:new 0 0 768 120;" xml:space="preserve">
<style type="text/css">
	.st0{fill:#010101;}
	.st1{fill:#0B94CF;}
	.st2{fill:#FFFFFF;}
</style>
<g>
	<g>
		<path class="st0" d="M439.5,67.4c-1.7-9.5-5.5-17.5-16.9-17.5c-6,0-11.2,2.9-11.2,9.2c0,4.3,1.7,6.6,5.2,8.6
			c1.7,0.9,3.7,1.7,6,2.6c2.3,0.9,4.3,1.7,6.9,2.3c7.5,2.3,18.4,8,18.4,21.8c0,13.8-12.6,20.4-24.7,20.4c-8,0-14.4-1.4-22.1-4V89.3
			h4c0.9,10.3,5.2,22.7,18.4,22.7c6.9,0,14.6-4,14.6-11.8c0-6.9-6-10-11.5-12.3c-10.3-4.3-24.7-7.2-24.7-21.5
			c0-13.2,10-20.1,21.5-20.1c6.9,0,12.9,2,19.5,4.3V68h-3.4L439.5,67.4L439.5,67.4z M126.6,87.8v-8.3c-12.3,0.3-24.4,4-24.4,16.9
			c0,7.8,4.9,10.9,10,10.9c4.3,0,7.5-2.3,8.9-3.7C126,99,126.3,95.9,126.6,87.8L126.6,87.8z M93.6,10.9L95,37.6h-4
			C87.8,22.4,75.8,7.7,57.4,7.7h-0.9C35.3,7.7,19.2,29,19.2,62c0,17.2,7.8,47.4,39.9,47.4c12.3,0,22.4-4.9,28.4-11.8
			c0.6-9.2,7.8-14.4,17.5-17.5c6.9-2,14.6-3.4,21.5-3.4V63.4c-0.3-4.6-0.6-12.1-11.2-12.1c-7.2,0-12.9,4.3-12.9,6.6
			c0,2,3.2,4,3.2,7.5c0,3.4-2.9,6.9-7.2,6.9s-6.9-3.4-6.9-7.5c0-7.8,10-17.2,25.8-17.2c7.5,0,15.2,3.2,19.2,6.9
			c4.3,4.6,4.3,9.8,4.3,15.8v30.4c0,5.5,0,9.2,3.7,9.2c0.9,0,0.9,0,1.1,0s0.6-0.3,1.1-0.6v3.2c-1.7,1.1-2.9,1.7-7.2,1.7
			c-3.4,0-6.6-1.1-9.2-2.9c-3.7-2.9-4-6.6-4.3-9.8c-3.4,6.9-10.3,12.9-21,12.9c-8.6,0-15.5-4.3-17.2-11.8
			c-6,6.6-16.9,12.6-35.6,12.6C20.1,115.4,0,91.3,0,60C0,35.6,17.5,4.6,55.1,4.6c23.5,0.3,27.8,6.9,31.6,6.9c2.6,0,3.7-2.6,6-2.6
			C92.7,9.2,93.6,9.5,93.6,10.9L93.6,10.9z M256.3,65.2c0,0.3,0,0.3,0.3,1.1c-17.5,8.6-28.1,15.8-41.1,24.7
			c2.6,9.5,8.3,16.6,19.2,16.6c7.8,0,17.8-7.8,21-13.5l0.3-0.3c0.6,0,2,0.3,2,0.6c0,1.4-2.9,6.3-4,7.8c-6.3,8.3-13.8,12.3-25.3,12.3
			c-17.8,0-29.3-16.1-29.3-33.9c0-18.4,14.4-33,31.6-33c9.8,0,18.9,4.3,23.5,13.5C255.5,62.6,256.1,63.7,256.3,65.2L256.3,65.2z
			 M214.4,86.7c6.9-5.7,16.9-13.5,28.7-20.1c-0.6-8.9-4.3-14.9-12.6-14.9c-8,0-12.6,6.6-15.2,16.4c-0.3,0.9-0.6,2.9-0.9,5.7
			c-0.3,1.7-0.3,4-0.3,5.7C213.9,81.8,214.1,84.4,214.4,86.7L214.4,86.7z M332.7,110.2h8.9v3.4h-33.3v-3.4h9.5V55.4
			c0,0,10.6-3.2,14.9-3.4L332.7,110.2L332.7,110.2z M174.2,65.2c0.9-2.3,1.7-4.6,4-8c3.7-5.2,8.6-8.6,14.6-8.6
			c5.7,0,10.3,3.7,10.3,9.2c0,4.6-3.4,8-8,8c-4.3,0-6.9-2.6-7.5-6.9c-0.3-3.4-0.3-4-2-4c-0.3,0-3.4,0.3-6.6,8
			c-4.3,10.6-4.6,18.4-4.6,28.7v18.9h8.9v3.2h-33.6v-3.2h9.5V55.7l-8.9,0.9v-4c0,0,10.3-2.3,24.1-3.4L174.2,65.2L174.2,65.2z
			 M370.3,63.7c0.9-2.3,1.7-4.9,4-8c3.7-5.2,8.6-8.6,14.6-8.6c5.7,0,10.3,3.7,10.3,9.5c0,4.6-3.4,8.3-8.3,8.3
			c-4.3,0-6.9-2.6-7.5-7.2c-0.3-3.4-0.3-4-2-4c-0.3,0-3.4,0.3-6.6,8c-4.3,10.6-4.6,18.4-4.9,29v20.1h8.9v3.4h-33v-3.4h9.5V54
			l-8.9,0.9v-4.3c0,0,9.8-2.3,24.1-3.7L370.3,63.7L370.3,63.7z M283.9,110.2h13.5v3.4h-44.8v-3.4h13.5V4.9h-13.5V1.4h76.1l2,25H327
			c-1.7-9.5-5.5-14.6-8.9-17.5c-4.9-4-11.5-4.3-23-4.3h-11.2v44.8c69.5-25.5,130-27.8,170.8-24.4c1.4-1.1,3.4-2.6,4.6-4
			c6-7.5,6.9-11.8,7.8-14.9h2.3v20.7c25.8,3.2,40.5,8,40.5,8v7.5c-14.1-3.2-27.6-5.5-40.5-7.2v63.7c0,4.9-0.3,11.5,7.8,11.5
			c8,0,9.2-6.6,9.5-8.9h3.4c-0.9,3.7-3.2,14.1-17.8,14.1c-7.8,0-14.1-3.2-16.4-9.5c-1.1-2.9-1.1-6.6-1.1-14.6v-58
			c-68.9-6.3-125.2,6.6-170.8,23V110.2L283.9,110.2z"/>
	</g>
	<path class="st1" d="M718.5,119.7c22.4-12.3,35.9-31.9,42.8-53.4c7.2-22.4,6-48.8-2.3-65.2c-12.6,6.3-25.5,9.8-40.5,9.8
		c-14.9,0-27.6-3.2-40.5-9.8c-8.3,16.4-9.5,42.8-2.3,65.2C682.9,87.8,696.4,107.4,718.5,119.7L718.5,119.7z"/>
	<polygon class="st1" points="622.9,118.5 622.9,86.4 655.1,86.4 655.1,34.7 622.9,34.7 622.9,2.6 571.5,2.6 571.5,34.7 539.1,34.7 
		539.1,86.4 571.5,86.4 571.5,118.5 	"/>
	<path class="st2" d="M597.1,60.6"/>
	<path class="st2" d="M597.1,60.6"/>
	<path class="st2" d="M567.5,49.4l21.2,2c4,0.6,4.6,4.3,3.4,6.9l-14.6,27.6l0,0c-7.5-5.7-12.1-14.9-12.1-25
		C565.2,56.5,566.1,52.8,567.5,49.4L567.5,49.4z"/>
	<path class="st2" d="M597.4,32.7c-3.7,0-4.9,4.3-3.2,6.6c1.4,2,1.7,2.6,1.7,4.3c0,1.4-1.4,3.4-4.6,3.4h-22.7
		c5.2-10.9,16.1-18.4,29-18.4"/>
	<path class="st1" d="M570.7,54l16.1,1.4c1.1,0,1.1,0.6,0.9,1.1l-11.2,21.5c-4-4.9-6.6-10.9-6.6-17.8
		C569.8,58.3,570.1,56.3,570.7,54z"/>
	<path class="st1" d="M589.6,34.2c-1.7,2.6-0.3,6.3,1.1,7.8c0.3,0.3,0,0.6,0,0.6h-14.4C579.9,38.7,584.5,35.9,589.6,34.2z"/>
	<path class="st2" d="M597.1,60.6"/>
	<path class="st2" d="M597.1,60.6"/>
	<path class="st2" d="M626.9,49.4l-21.2,2c-4,0.6-4.6,4.3-3.4,6.9l14.6,27.6l0,0c7.5-5.7,12.1-14.9,12.1-25
		C628.9,56.5,628.4,52.8,626.9,49.4L626.9,49.4z"/>
	<path class="st2" d="M597.1,32.7c3.7,0,4.9,4.3,3.2,6.6c-1.4,2-1.7,2.6-1.7,4.3c0,1.4,1.4,3.4,4.6,3.4h22.7
		c-5.2-10.9-16.1-18.4-28.7-18.4"/>
	<path class="st1" d="M623.8,54l-16.1,1.4c-1.1,0-1.1,0.6-0.9,1.1L618,78.1c4-4.9,6.6-10.9,6.6-17.8C624.6,58.3,624.4,56.3,623.8,54
		z"/>
	<path class="st1" d="M604.8,34.2c1.7,2.6,0.3,6.3-1.1,7.8c-0.3,0.3,0,0.6,0,0.6H618C614.6,38.7,610,35.9,604.8,34.2z"/>
	<path class="st2" d="M597.1,92.4c6.6,0,12.3-2,17.5-5.2l0,0L599.1,64c-1.1-1.4-2.9-1.7-4,0l-15.5,23.3l0,0
		C584.7,90.4,590.8,92.4,597.1,92.4"/>
	<path class="st2" d="M718.5,109.9C736.9,98.5,746.6,82.4,753,64c5.5-16.4,6.9-35.3,0.9-50.2c-9.2,3.2-14.6,4-19.5,4.9
		c-4.6,0.9-8.9,1.1-15.5,1.1l0,0c-6.9,0-10.9-0.6-15.5-1.1c-4.9-0.9-10.3-1.7-19.5-4.9c-6,14.9-4.9,33.9,0.9,50.2
		C690.7,82.1,700.4,98.5,718.5,109.9L718.5,109.9z"/>
	<path class="st1" d="M718.5,105.3c12.3-7.8,26.4-25.5,32.2-48.8c2.9-12.3,3.7-26.1,0-37.3c-5.5,1.4-10.6,2.6-16.1,3.4
		c-5.5,0.6-10.6,1.1-15.8,1.1l0,0c-5.2,0-10.6-0.6-15.8-1.1c-5.5-0.9-10.6-2-16.1-3.4c-4,10.9-3.2,25,0,37.3
		C692.1,79.8,706.2,97.6,718.5,105.3L718.5,105.3z"/>
	<path class="st2" d="M705.9,32.4c-4.3,2.3-5.7,7.2-3.7,11.5c1.7,3.4,4.9,6,8.6,7.2c2,0.6,3.7,0.6,5.7,0.9c2.3,0,4.6,0.3,6.9,0.9
		c0.6,0,1.1,0.3,1.1,0.9c0.6,1.1,0,2.3-1.1,2.9c0,2-0.3,6-0.3,6s9.8-0.9,8-9.8c-0.3-2-2-4.3-4-5.2c-4.9-2.6-10.3-1.4-15.2-3.2
		c-1.7-0.6-4-1.4-4.6-3.2c-0.3-0.9,0-2.3,0.9-2.6c1.1-0.3,2.6,0.6,4.6,1.1c1.1,0.3,2.3,0.3,3.2,0c0.3,0,0.9-0.3,1.1-0.6
		c0-0.3-0.6-0.3-0.9-0.6c-0.6-0.3-1.1-0.3-1.7-0.6c-1.1-0.3-2-0.9-3.2-1.4c0.9-0.3,2.6-0.3,3.4,0c0.9,0,3.2,0,3.7,0
		c0.3,0,0.6-0.3,0.3-0.6c-0.3-0.6-0.9-0.6-1.1-1.1c-0.6-0.9-1.1-2-2.3-2.3C712.8,31,709,30.7,705.9,32.4z"/>
	<path class="st2" d="M722.2,63.4V53.1c0,0-1.4-0.3-3.2-0.3c-2.3-0.3-3.4,0-3.4,0v0.9c0,0-1.1,0.6-1.4,0.9c0,0-0.3,0.6-0.3,0.9
		c0.9,2.6,2.3,4.9,2.6,7.8C718.5,63.1,719.9,63.1,722.2,63.4z"/>
	<path class="st2" d="M709.9,62c-0.6,4,2.3,6,5.2,6.9c2.3,0.6,4.6,0.6,6.9,0.9c0.3,0,0.9,0,1.4,0.3c0.3,0.3,0.6,0.6,0.9,0.6
		c0,0.3,0,0.6-0.3,0.9s-0.9,0.6-0.9,0.6v4.9c0,0,2,0,3.4-1.1c1.4-0.9,2.3-2,2.9-3.4c0.3-1.7,0-3.2-1.1-4.9c-0.9-1.1-2-1.7-3.4-2.3
		c-2.9-0.9-6-0.9-8.9-1.1c-0.6,0-0.9-0.3-0.9-0.9c0-0.9,0.6-1.1,0.6-1.1s-0.3-1.1-0.9-2.3c-0.3-0.9-0.9-2-1.1-2.6
		C711.6,58,710.2,60,709.9,62z"/>
	<path class="st2" d="M722,70.9v8.6l-2.3-0.9l-2-0.9v-7.2C719.4,70.6,720.2,70.6,722,70.9z"/>
	<path class="st2" d="M712.2,75.5c-1.1,2.9,0.3,5.5,2.6,6.6c1.1,0.6,2.9,1.1,4.3,1.7c1.4,0.6,3.7,2,3.7,2.6s-0.3,0.9-0.3,0.9v3.4
		c0,0,1.4-0.3,2.6-1.1c0.9-0.9,1.7-1.7,1.7-3.4s-0.9-3.2-3.4-4.9c-2-1.1-4.6-2.3-6.3-2.9c-0.3,0-0.6-0.6-0.3-0.9
		c0-0.3,0.3-0.6,0.3-0.6v-4c0,0-1.4,0.3-2.3,0.6C713.6,74.1,712.8,74.6,712.2,75.5z"/>
	<path class="st2" d="M721.7,87c0-0.3,0-0.3-0.3-0.6c-0.6-0.6-1.4-1.1-1.7-1.1c-0.6-0.3-2-0.9-2-0.9s0,8.9,0.3,13.5
		c0,1.1,0.6,1.4,1.7,1.4c1.1,0,1.4-0.6,1.7-1.1C721.4,96.7,721.4,90.4,721.7,87z"/>
	<path class="st2" d="M722.5,30.1c0.6,0.3,0.6,0.3,0.6,0.9c0.3,1.4,0,3.7,0.3,4.6c0,0.3,0.6,0.3,0.6,0.3c2-1.1,3.2-2.9,5.2-3.7
		c0.9-0.3,3.4,0.9,2.9,2.9c-0.3,0.9-0.6,1.1-1.1,1.7c-1.1,1.1-2.9,2.3-4.3,4c-0.9,1.1-2,1.7-2.9,2.9c-0.3,0.3-0.6,0.9-0.6,0.9
		c-2.9-0.6-5.5-0.6-7.8-0.9v-3.2c0,0,2.3-0.3,2.6-1.4c0,0,0-0.6-0.3-0.6c-0.3-0.3-1.1-0.6-1.1-0.6c2.3,0.3,3.4,0.6,5.7,1.7
		c0-0.3,0-0.9,0-0.9c-0.3-0.3-0.6-0.6-1.1-0.6c-1.4-0.3-4.9-0.9-4.9-0.9s1.7,0,2.9-0.3c0.6,0,1.1-0.3,1.4-0.6s0-0.9-0.6-1.4
		c-0.3-0.3-0.6-0.6-0.9-1.1s-0.9-1.1-1.4-1.7s-1.7-1.1-1.7-1.1s-0.3-1.7,0-2.3s0.9-0.9,1.1-0.6C718.8,29,720.5,29.8,722.5,30.1z"/>
	<path class="st1" d="M715.6,33.6c-0.3,0.3-0.6,0.6-1.1,0.6c-0.9,0.3-0.9-0.6-1.4-1.1c-0.3-0.3-0.9,0-1.1-0.6c1.4,0,3.2,0,4,0.9
		L715.6,33.6z"/>
	<path class="st1" d="M596.8,69.2c0.3-0.3,0.6-0.3,0.9,0l10.6,16.4c-3.4,1.4-7.2,2.3-11.2,2.3s-7.8-0.9-11.2-2.3L596.8,69.2
		c0.3-0.3,0.6-0.3,0.9,0"/>
	<path class="st2" d="M715.6,90.4c-0.6,0.6-1.4,1.7-1.4,3.4s0.3,2,0.6,2.9c0.3,0.6,1.1,0.6,1.4,0s0-1.1,0-2.3
		c0.3-0.9,0.9-1.4,0.9-1.4v-4C717.1,89.3,716.5,89.6,715.6,90.4z"/>
	<path class="st1" d="M739.5,113.1c0-2.9,2-4.9,4.9-4.9c2.6,0,4.9,2,4.9,4.9c0,2.9-2,4.9-4.9,4.9C741.5,118,739.5,116,739.5,113.1z
		 M744.2,119c3.2,0,6-2.6,6-5.7c0-3.4-2.6-5.7-6-5.7c-3.2,0-5.8,2.6-5.8,5.7C738.7,116.4,741,119,744.2,119z M742.9,113.7h1.1
		l1.7,2.9h1.1l-2-2.9c0.9,0,1.7-0.6,1.7-1.7c0-1.4-0.9-2-2.3-2h-2.6v6.6h1.1L742.9,113.7L742.9,113.7z M742.9,112.8v-2h1.4
		c0.6,0,1.4,0.3,1.4,0.9c0,1.1-0.9,1.1-1.7,1.1L742.9,112.8L742.9,112.8z"/>
	<path class="st1" d="M629.2,113.1c0-2.9,2-4.9,4.9-4.9c2.6,0,4.9,2,4.9,4.9c0,2.9-2,4.9-4.9,4.9S629.2,116,629.2,113.1z
		 M634.1,118.9c3.2,0,6-2.6,6-5.7c0-3.4-2.6-5.7-6-5.7c-3.2,0-6,2.6-6,5.7C628.1,116.3,630.7,118.9,634.1,118.9z M632.7,113.7h1.1
		l1.7,2.9h1.1l-2-2.9c0.9,0,1.7-0.6,1.7-1.7c0-1.4-0.9-2-2.3-2h-2.6v6.6h1.1L632.7,113.7L632.7,113.7z M632.7,112.8v-2h1.4
		c0.6,0,1.4,0.3,1.4,0.9c0,1.1-0.9,1.1-1.7,1.1L632.7,112.8L632.7,112.8z"/>
	<path class="st0" d="M494,113.4c0-2.9,2-4.9,4.9-4.9c2.6,0,4.9,2,4.9,4.9c0,2.9-2,4.9-4.9,4.9C496,118.3,494,116,494,113.4z
		 M498.6,119.1c3.2,0,6-2.6,6-5.7c0-3.4-2.6-5.7-6-5.7c-3.2,0-6,2.6-6,5.7C492.9,116.5,495.5,119.1,498.6,119.1z M497.5,113.7h1.1
		l1.7,2.9h1.1l-2-2.9c0.9,0,1.7-0.6,1.7-1.7c0-1.4-0.9-2-2.3-2h-2.6v6.6h1.1L497.5,113.7L497.5,113.7z M497.5,112.8v-2h1.4
		c0.6,0,1.4,0.3,1.4,0.9c0,1.1-0.9,1.1-1.7,1.1L497.5,112.8L497.5,112.8z"/>
	<path class="st0" d="M515,101.9l-2,9.8h-3.7l2-9.8H515z"/>
</g>
</svg>
